<?xml version="1.0" encoding="UTF-8" ?>
<!DOCTYPE svg PUBLIC "-//W3C//DTD SVG 1.1//EN" "http://www.w3.org/Graphics/SVG/1.1/DTD/svg11.dtd">
<svg width="256pt" height="256pt" viewBox="0 0 256 256" version="1.1" xmlns="http://www.w3.org/2000/svg">
<g id="#ebca56ff">
<path fill="#ebca56" opacity="1.00" d=" M 114.10 16.30 C 122.90 15.11 132.28 17.07 139.27 22.72 C 143.40 25.74 146.05 30.79 145.56 35.97 C 143.92 55.53 142.29 75.10 140.56 94.66 C 124.55 93.13 108.24 93.30 92.48 96.71 C 79.62 99.55 67.30 105.65 58.06 115.14 C 51.72 121.46 46.92 129.18 43.28 137.33 C 42.60 139.06 41.12 140.84 39.03 140.46 C 32.99 139.93 26.96 139.21 20.95 138.47 C 12.17 137.62 5.04 129.60 4.36 120.96 C 3.52 112.99 4.45 104.83 7.22 97.31 C 16.55 72.20 33.57 49.58 56.58 35.52 C 73.94 24.82 93.90 18.63 114.10 16.30 Z" />
<path fill="#ebca56" opacity="1.00" d=" M 199.31 42.36 C 202.30 37.37 207.83 32.60 214.05 34.08 C 219.53 35.52 222.93 40.47 226.54 44.45 C 235.94 56.25 244.23 69.37 248.13 84.08 C 251.25 95.43 252.14 107.26 251.90 118.99 C 251.73 126.01 249.80 132.82 247.65 139.45 C 245.39 144.78 241.37 149.62 236.02 152.02 C 233.54 153.09 229.80 153.40 228.38 150.59 C 223.37 139.95 216.32 130.27 207.63 122.34 C 195.69 111.54 181.19 103.74 166.08 98.39 C 177.20 79.74 188.17 61.00 199.31 42.36 Z" />
<path fill="#ebca56" opacity="1.00" d=" M 109.03 100.01 C 121.98 98.72 135.05 99.40 147.95 100.86 C 171.09 103.74 192.77 115.33 208.61 132.35 C 215.56 139.46 221.52 147.69 225.04 157.05 C 226.60 161.44 228.69 166.10 227.58 170.85 C 224.34 184.81 217.05 197.77 206.84 207.83 C 195.64 218.89 181.65 226.97 166.74 231.87 C 141.45 240.02 113.74 243.20 87.86 235.87 C 71.90 231.68 56.01 223.25 47.32 208.69 C 39.88 196.60 39.48 181.82 40.74 168.09 C 42.79 148.66 51.38 129.34 66.54 116.65 C 78.40 106.61 93.76 101.61 109.03 100.01 Z" />
</g>
</svg>
